# xmcd
#
# Track frame offsets: 
#        150
#        17618
#        49615
#        96135
#        110854
#        132420
#        154274
#        187946
#        210151
#
# Disc length: 3110 seconds
#
# Revision: 0
# Processed by: cddbd v1.5.2PL0 Copyright (c) Steve Scherf et al.
# Submitted via: ExactAudioCopy v1.0b4
#
DISCID=700c2409
DTITLE=Climax Blues Band - Live At Rockpalast
DYEAR=2013
DGENRE=Blues Rock
TTITLE0=I Am Constant
TTITLE1=Amerita - Sense Of Direction
TTITLE2=Running Out Of Time
TTITLE3=Country Hat
TTITLE4=Come On In My Kitchen
TTITLE5=Using The Power
TTITLE6=Going To New York
TTITLE7=The Seventh Son
TTITLE8=All The Time In The World - Get Back
EXTD=
EXTT0=
EXTT1=
EXTT2=
EXTT3=
EXTT4=
EXTT5=
EXTT6=
EXTT7=
EXTT8=
PLAYORDER=
